M48
;DRILL file {Pcbnew (2013-07-07 BZR 4022)-stable} date 27/05/2015 02:53:13 p.m.
;FORMAT={-:-/ absolute / metric / decimal}
FMAT,2
METRIC,TZ
T1C0.635
T2C0.813
T3C1.016
T4C3.988
%
G90
G05
M71
T1
X197.69Y-163.29
X197.69Y-165.83
X197.69Y-168.37
X197.69Y-170.91
X205.31Y-163.29
X205.31Y-165.83
X205.31Y-168.37
X205.31Y-170.91
T2
X214.799Y-166.6
X214.799Y-168.599
X214.799Y-170.6
X214.799Y-172.599
X214.799Y-174.601
X214.799Y-176.6
X214.799Y-178.599
X214.799Y-180.6
X214.799Y-182.599
X214.799Y-184.601
X236.801Y-166.6
X236.801Y-168.599
X236.801Y-170.6
X236.801Y-172.599
X236.801Y-174.601
X236.801Y-176.6
X236.801Y-178.599
X236.801Y-180.6
X236.801Y-182.599
X236.801Y-184.601
X245.39Y-148.29
X245.39Y-150.83
X245.39Y-153.37
X245.39Y-155.91
X253.01Y-148.29
X253.01Y-150.83
X253.01Y-153.37
X253.01Y-155.91
T3
X189.23Y-138.27
X189.23Y-140.81
X189.23Y-143.35
X189.23Y-145.89
X189.23Y-148.43
X189.23Y-150.97
X189.23Y-153.51
X189.23Y-156.05
X189.23Y-158.59
X189.23Y-161.13
X189.23Y-163.67
X189.23Y-166.21
X189.23Y-168.75
X189.23Y-171.29
X189.23Y-173.83
X189.23Y-176.37
X189.23Y-178.91
X189.23Y-181.45
X189.23Y-183.99
X189.23Y-186.53
X191.77Y-138.27
X191.77Y-140.81
X191.77Y-143.35
X191.77Y-145.89
X191.77Y-148.43
X191.77Y-150.97
X191.77Y-153.51
X191.77Y-156.05
X191.77Y-158.59
X191.77Y-161.13
X191.77Y-163.67
X191.77Y-166.21
X191.77Y-168.75
X191.77Y-171.29
X191.77Y-173.83
X191.77Y-176.37
X191.77Y-178.91
X191.77Y-181.45
X191.77Y-183.99
X191.77Y-186.53
X204.53Y-176.4
X207.07Y-176.4
X212.Y-138.21
X212.Y-140.75
X212.Y-143.29
X212.Y-145.83
X212.Y-148.37
X212.Y-150.91
X212.Y-153.45
X212.Y-155.99
X213.9Y-130.63
X213.9Y-133.17
X224.56Y-134.2
X227.1Y-134.2
X229.64Y-134.2
X235.8Y-140.85
X235.8Y-143.39
X235.8Y-145.93
X235.8Y-148.47
X235.8Y-151.01
X235.8Y-153.55
X245.7Y-131.03
X245.7Y-133.57
X260.33Y-138.27
X260.33Y-140.81
X260.33Y-143.35
X260.33Y-145.89
X260.33Y-148.43
X260.33Y-150.97
X260.33Y-153.51
X260.33Y-156.05
X260.33Y-158.59
X260.33Y-161.13
X260.33Y-163.67
X260.33Y-166.21
X260.33Y-168.75
X260.33Y-171.29
X260.33Y-173.83
X260.33Y-176.37
X260.33Y-178.91
X260.33Y-181.45
X260.33Y-183.99
X260.33Y-186.53
X262.87Y-138.27
X262.87Y-140.81
X262.87Y-143.35
X262.87Y-145.89
X262.87Y-148.43
X262.87Y-150.97
X262.87Y-153.51
X262.87Y-156.05
X262.87Y-158.59
X262.87Y-161.13
X262.87Y-163.67
X262.87Y-166.21
X262.87Y-168.75
X262.87Y-171.29
X262.87Y-173.83
X262.87Y-176.37
X262.87Y-178.91
X262.87Y-181.45
X262.87Y-183.99
X262.87Y-186.53
T4
X187.3Y-207.1
X263.7Y-207.1
T0
M30
